<?xml version="1.0" encoding="UTF-8"?>
<svg width="1038px" height="482px" viewBox="0 0 1038 482" xmlns="http://www.w3.org/2000/svg" xmlns:xlink="http://www.w3.org/1999/xlink" version="1.1">
 <!-- Generated by Pixelmator Pro 1.1.3 -->
 <path id="path" d="M769.335 198.894 L804.89 198.894 819.523 242.542 834.013 198.894 867.327 198.894 832.541 280.698 C829.7 287.3 827.22 292.225 825.101 295.477 822.984 298.729 819.841 301.403 815.675 303.498 811.509 305.593 805.792 306.641 798.521 306.641 794.668 306.641 788.047 306.087 778.658 304.979 L778.658 283.083 C784.193 283.661 788.235 283.95 790.787 283.95 798.344 283.95 802.939 281.132 804.576 275.495 L769.335 198.894 Z" fill="#1e1e1e" fill-opacity="1" stroke="none"/>
 <path id="path-1" d="M616.133 198.894 L715.643 198.894 715.643 225.054 682.256 225.054 682.256 304.835 649.52 304.835 649.52 225.054 616.133 225.054 616.133 198.894 Z" fill="#1e1e1e" fill-opacity="1" stroke="none"/>
 <path id="path-2" d="M1023.307 317.59 L615.419 317.59 518.74 14.283 422.061 317.59 14.173 317.59 398.977 390.011 374.173 467.826 450.708 467.826 468.562 403.107 518.74 412.55 568.918 403.107 586.772 467.826 663.307 467.826 638.503 390.011 1023.307 317.59 Z M492.153 317.59 L518.74 221.212 545.327 317.59 492.153 317.59 Z" fill="#1e1e1e" fill-opacity="1" stroke="none"/>
 <path id="path-3" d="M427.917 224.909 L376.68 224.909 376.68 304.834 344.016 304.834 344.016 198.894 427.916 198.894 427.916 224.909 Z" fill="#1e1e1e" fill-opacity="1" stroke="none"/>
 <path id="path-4" d="M188.205 198.894 L242.621 198.894 C254.473 198.894 263.349 201.712 269.251 207.349 275.152 212.986 278.104 221.007 278.104 231.413 278.104 242.108 274.888 250.467 268.457 256.489 262.025 262.512 252.208 265.522 239.009 265.522 L221.087 265.522 221.087 304.835 188.206 304.835 188.206 198.894 Z M221.086 244.059 L229.107 244.059 C235.418 244.059 239.85 242.964 242.404 240.771 244.957 238.579 246.234 235.773 246.234 232.352 246.234 229.028 245.125 226.209 242.91 223.897 240.694 221.584 236.526 220.428 230.408 220.428 L221.086 220.428 221.086 244.059 Z" fill="#1e1e1e" fill-opacity="1" stroke="none"/>
</svg>
